<svg width="163" height="36" viewBox="0 0 163 36" fill="none" xmlns="http://www.w3.org/2000/svg">
<path d="M0 11.5494V24.3276C0 32.2525 5.30566 33.4812 10.6741 33.4812C14.724 33.4812 17.2983 33.2355 18.8995 32.959C19.4332 32.8976 19.7471 32.6211 19.7471 32.1297V27.1228C19.7471 26.6621 19.339 26.2935 18.8995 26.2935H10.4857C8.94742 26.2935 8.5079 25.8327 8.5079 24.2969V20.918H15.4147C15.8856 20.918 16.2623 20.5187 16.2623 20.0887V15.2969C16.2623 14.8361 15.8542 14.4675 15.4147 14.4675H8.5079V11.488C8.5079 9.86003 9.0416 9.49142 10.4857 9.49142H18.8995C19.3704 9.49142 19.7471 9.09211 19.7471 8.66207V3.65525C19.7471 3.13306 19.496 2.94876 18.8995 2.8259C17.2983 2.64159 14.724 2.30371 10.6741 2.30371C5.30566 2.39586 0 3.62453 0 11.5494Z" fill="white"/>
<path d="M60.3403 33.0819V2.76453H68.8168V33.0819H60.3403Z" fill="white"/>
<path d="M73.4316 2.76453C72.9607 2.76453 72.584 3.10241 72.584 3.53244V8.72357C72.584 9.18432 72.9921 9.49149 73.4316 9.49149H79.8047V32.1911C79.8047 32.6519 80.2128 33.0205 80.6524 33.0205H87.3394C87.8103 33.0205 88.187 32.6212 88.187 32.1911V9.49149H94.4345C94.9054 9.49149 95.2822 9.1536 95.2822 8.72357V3.53244C95.2822 3.07169 94.874 2.76453 94.4345 2.76453H73.4316Z" fill="white"/>
<path d="M99.5518 2.76444C99.0808 2.76444 98.7041 3.16375 98.7041 3.59379V25.802C98.7041 32.5597 103.162 33.389 107.589 33.389C111.513 33.389 114.621 33.2047 115.751 32.9897C116.002 32.9283 116.159 32.6518 116.159 32.4061V30.4709C116.159 30.2252 115.971 29.9487 115.688 29.9487H107.652C103.194 29.9487 102.534 28.7815 102.534 25.7405V3.53235C102.534 3.0716 102.126 2.703 101.687 2.703H99.5518V2.76444Z" fill="#A10A0B"/>
<path d="M125.892 5.62119L118.2 32.1604C118.137 32.2219 118.137 32.3447 118.137 32.4062C118.137 32.8055 118.388 33.0512 118.859 33.0512H121.308C121.653 33.0512 121.967 32.8055 122.03 32.4676L124.699 23.0683H135.498L138.23 32.4676C138.292 32.8055 138.575 33.0512 138.952 33.0512H141.4C141.871 33.0512 142.123 32.8055 142.123 32.4062C142.123 32.3447 142.123 32.2219 142.06 32.1604L134.368 5.55975C133.646 3.10242 131.7 2.5188 130.193 2.5188C128.529 2.5188 126.551 3.10242 125.892 5.62119ZM129.251 6.48126C129.376 6.02051 129.659 5.77477 130.098 5.77477C130.507 5.77477 130.758 6.02051 130.883 6.48126L134.651 19.9045H125.421L129.251 6.48126Z" fill="#A10A0B"/>
<path d="M143.19 15.2355V20.6723C143.19 30.0102 148.747 33.3276 153.99 33.3276C157.914 33.3276 160.237 33.0819 162.278 32.744C162.749 32.6826 163 32.2833 163 31.8225V18.1228C163 17.6621 162.592 17.2935 162.215 17.2935H159.955C159.484 17.2935 159.233 17.6928 159.233 18.1228V29.7952C158.228 29.8566 156.501 30.0409 153.99 30.0409C150.128 30.0409 146.957 27.3686 146.957 20.6416V15.2048C146.957 7.86346 150.473 5.80544 154.335 5.80544C157.851 5.80544 159.766 5.86688 162.215 6.05118H162.403C162.811 6.05118 162.937 5.92831 162.937 5.65186V3.65527C162.937 3.25595 162.592 3.07165 162.215 3.07165C160.614 2.82592 158.165 2.48804 154.335 2.48804C149.029 2.51875 143.19 5.31398 143.19 15.2355Z" fill="#A10A0B"/>
<path d="M47.0289 0C46.4324 0 46.0871 0.460751 45.7731 0.982935L41.9116 7.157L43.1674 9.15358L48.1277 17.2014L58.0798 1.04437C58.1426 0.921502 58.2053 0.798635 58.2053 0.706485C58.2053 0.368601 57.9542 0.122867 57.5461 0.122867H46.9975V0H47.0289Z" fill="white"/>
<path d="M43.1674 26.7236L41.9116 28.7202L45.7731 34.8942C46.1185 35.355 46.4324 35.8771 47.0289 35.8771H57.5775C57.9856 35.8771 58.2367 35.6314 58.2367 35.2321C58.2367 35.1092 58.174 34.9864 58.1112 34.8328L48.1591 18.6758L43.1674 26.7236Z" fill="white"/>
<path d="M21.5992 9.0614C21.4109 9.0614 21.2539 9.0614 21.2539 9.2457C21.2539 9.30714 21.2539 9.30714 21.3167 9.36857L26.5596 17.8771L21.3167 26.4471C21.3167 26.5085 21.2539 26.6314 21.2539 26.6314C21.2539 26.8157 21.3795 26.9693 21.5992 26.9693H26.9049C27.1561 26.9693 27.3758 26.6314 27.5014 26.4471L30.2327 22.0853L32.9012 17.8771L30.2327 13.6689L27.5014 9.46072C27.3758 9.21498 27.1561 9.0614 26.9049 9.0614H21.5992Z" fill="#A10A0B"/>
<path d="M24.8644 0C24.4562 0 24.2051 0.245734 24.2051 0.583618C24.2051 0.706485 24.2679 0.829352 24.3307 0.921502L34.7536 17.9386L24.3307 34.9556C24.2679 35.0785 24.2051 35.2014 24.2051 35.3549C24.2051 35.6928 24.4562 36 24.8644 36H35.4129C36.0094 36 36.3547 35.4778 36.6687 35.0171L41.9743 26.3857L47.2172 18L41.9743 9.61433L36.6687 1.04437C36.3233 0.583618 36.0094 0.0614334 35.4129 0.0614334H24.8644V0ZM32.3048 26.6621C32.3048 26.6007 32.3048 26.5392 32.3676 26.4778L37.6105 17.9078L32.3048 9.39932C32.3048 9.33788 32.2421 9.33788 32.2421 9.33788C32.2421 9.15358 32.3676 9.15358 32.5874 9.15358H37.8931C38.1442 9.15358 38.364 9.27645 38.4896 9.5529L41.2209 13.8225L43.8894 18.0307L41.2209 22.2389L38.4896 26.6621C38.364 26.9079 38.1442 27.1843 37.8931 27.1843H32.5874C32.4304 27.0614 32.3048 26.8464 32.3048 26.6621Z" fill="#A10A0B"/>
</svg>
