<svg width="32" height="32" viewBox="0 0 32 32" fill="none" xmlns="http://www.w3.org/2000/svg">
<path d="M16 29C13.4288 29 10.9154 28.2376 8.77759 26.8091C6.63975 25.3807 4.97351 23.3503 3.98957 20.9749C3.00563 18.5995 2.74819 15.9856 3.2498 13.4638C3.75141 10.9421 4.98954 8.6257 6.80762 6.80762C8.6257 4.98954 10.9421 3.75141 13.4638 3.2498C15.9856 2.74819 18.5995 3.00563 20.9749 3.98957C23.3503 4.97351 25.3807 6.63975 26.8091 8.77759C28.2376 10.9154 29 13.4288 29 16C28.9965 19.4467 27.6257 22.7513 25.1885 25.1885C22.7513 27.6257 19.4467 28.9965 16 29ZM16 5.00001C13.8244 5.00001 11.6977 5.64514 9.88873 6.85384C8.07979 8.06254 6.6699 9.7805 5.83733 11.7905C5.00477 13.8005 4.78693 16.0122 5.21137 18.146C5.63581 20.2798 6.68345 22.2398 8.22183 23.7782C9.76021 25.3166 11.7202 26.3642 13.854 26.7886C15.9878 27.2131 18.1995 26.9952 20.2095 26.1627C22.2195 25.3301 23.9375 23.9202 25.1462 22.1113C26.3549 20.3023 27 18.1756 27 16C26.9965 13.0837 25.8364 10.2879 23.7743 8.22573C21.7121 6.16359 18.9163 5.00353 16 5.00001V5.00001Z" fill="#F1AE2F"/>
<path d="M20.0001 23.1732C19.8369 23.1729 19.6764 23.1317 19.5334 23.0532L16.0001 21.1865L12.4534 23.0532C12.2879 23.1395 12.1015 23.1778 11.9153 23.1636C11.7292 23.1495 11.5507 23.0835 11.4001 22.9732C11.2518 22.8621 11.1363 22.713 11.0659 22.5417C10.9955 22.3703 10.9727 22.1831 11.0001 21.9999L11.6801 17.9999L8.81341 15.2665C8.68075 15.1353 8.5869 14.97 8.5422 14.7888C8.4975 14.6077 8.50369 14.4177 8.56008 14.2399C8.61518 14.067 8.71626 13.9124 8.85248 13.7927C8.98871 13.6729 9.15495 13.5924 9.33341 13.5599L13.3334 12.9732L15.1067 9.33318C15.199 9.17848 15.3298 9.05038 15.4864 8.96142C15.643 8.87245 15.82 8.82568 16.0001 8.82568C16.1802 8.82568 16.3572 8.87245 16.5138 8.96142C16.6704 9.05038 16.8012 9.17848 16.8934 9.33318L18.6667 12.9732L22.6667 13.5599C22.8524 13.5856 23.0271 13.663 23.1709 13.7832C23.3147 13.9034 23.4219 14.0617 23.4801 14.2399C23.5365 14.4177 23.5426 14.6077 23.4979 14.7888C23.4532 14.97 23.3594 15.1353 23.2267 15.2665L20.3601 18.0532L21.0401 22.0532C21.0674 22.2364 21.0447 22.4236 20.9743 22.595C20.9038 22.7664 20.7884 22.9155 20.6401 23.0265C20.4502 23.1481 20.224 23.1999 20.0001 23.1732V23.1732ZM16.0001 19.0532C16.1632 19.0534 16.3237 19.0947 16.4667 19.1732L18.6801 20.3332L18.2534 17.8799C18.2253 17.7183 18.2374 17.5523 18.2885 17.3966C18.3397 17.2408 18.4284 17.1 18.5467 16.9865L20.3334 15.2399L17.8667 14.8799C17.7047 14.8588 17.5504 14.7978 17.4178 14.7024C17.2851 14.607 17.1782 14.4801 17.1067 14.3332L16.0001 12.0932L14.8934 14.3332C14.8219 14.4801 14.715 14.607 14.5824 14.7024C14.4497 14.7978 14.2955 14.8588 14.1334 14.8799L11.6667 15.2399L13.4534 16.9865C13.5718 17.1 13.6605 17.2408 13.7116 17.3966C13.7628 17.5523 13.7748 17.7183 13.7467 17.8799L13.3334 20.3332L15.5467 19.1732C15.6858 19.0968 15.8414 19.0556 16.0001 19.0532V19.0532Z" fill="#F1AE2F"/>
</svg>
