<svg width="21" height="18" viewBox="0 0 21 18" fill="none" xmlns="http://www.w3.org/2000/svg">
<path d="M21 2.13063C20.2271 2.49269 19.3968 2.73633 18.5253 2.84623C19.4154 2.28397 20.0978 1.39372 20.4193 0.332245C19.5874 0.852762 18.6651 1.23101 17.6829 1.43547C16.8971 0.552037 15.7777 0 14.5387 0C12.1593 0 10.2306 2.03521 10.2306 4.54409C10.2306 4.90018 10.2694 5.24776 10.3421 5.57916C6.76174 5.39003 3.58763 3.58058 1.46187 0.830612C1.09196 1.50192 0.879543 2.28227 0.879543 3.11629C0.879543 4.69232 1.63955 6.08349 2.79532 6.89791C2.08942 6.87406 1.42471 6.6696 0.844006 6.32969C0.844006 6.34928 0.844006 6.36717 0.844006 6.38677C0.844006 8.58895 2.32849 10.4257 4.29999 10.8423C3.93896 10.9462 3.55775 11.0016 3.16442 11.0016C2.88739 11.0016 2.61682 10.9726 2.35433 10.9206C2.90273 12.7258 4.49383 14.0403 6.37891 14.077C4.90493 15.296 3.04731 16.0227 1.02815 16.0227C0.680858 16.0227 0.337602 16.0014 0 15.9588C1.90689 17.2478 4.17076 18 6.60425 18C14.529 18 18.8613 11.0757 18.8613 5.07057C18.8613 4.87377 18.8573 4.67784 18.8492 4.48275C19.6916 3.84126 20.4225 3.04132 21 2.13063Z" fill="white"/>
</svg>
