<svg width="86" height="105" viewBox="0 0 86 105" fill="none" xmlns="http://www.w3.org/2000/svg">
<path d="M1.1 84.8C0.437259 85.2971 0.302945 86.2373 0.8 86.9L8.9 97.7C9.39706 98.3627 10.3373 98.4971 11 98C11.6627 97.5029 11.7971 96.5627 11.3 95.9L4.1 86.3L13.7 79.1C14.3627 78.6029 14.4971 77.6627 14 77C13.5029 76.3373 12.5627 76.2029 11.9 76.7L1.1 84.8ZM16.2121 86.5151L2.21213 84.5151L1.78787 87.4849L15.7879 89.4849L16.2121 86.5151Z" fill="#A10A0B"/>
<path d="M55.1025 1C66.4829 35.0374 72.5949 99.7673 5.99966 86.3883" stroke="#A10A0B" stroke-width="6"/>
</svg>
