<svg width="85" height="85" viewBox="0 0 85 85" fill="none" xmlns="http://www.w3.org/2000/svg">
<path d="M43.3851 43.3854C39.3574 43.3854 35.4201 42.1911 32.0711 39.9534C28.7222 37.7157 26.112 34.5352 24.5707 30.814C23.0293 27.0929 22.626 22.9982 23.4118 19.0479C24.1976 15.0976 26.1371 11.4689 28.9852 8.62091C31.8332 5.77287 35.4618 3.83333 39.4122 3.04756C43.3625 2.26179 47.4571 2.66507 51.1783 4.20642C54.8994 5.74777 58.0799 8.35795 60.3176 11.7069C62.5553 15.0558 63.7497 18.9931 63.7497 23.0208C63.7403 28.419 61.5918 33.5934 57.7747 37.4104C53.9576 41.2275 48.7832 43.3761 43.3851 43.3854V43.3854ZM43.3851 7.96876C40.4081 7.96876 37.4979 8.85155 35.0226 10.5055C32.5473 12.1594 30.618 14.5102 29.4788 17.2607C28.3395 20.0111 28.0414 23.0375 28.6222 25.9574C29.203 28.8772 30.6366 31.5592 32.7417 33.6643C34.8467 35.7693 37.5288 37.2029 40.4486 37.7837C43.3684 38.3645 46.3949 38.0664 49.1453 36.9272C51.8957 35.7879 54.2465 33.8586 55.9004 31.3833C57.5544 28.908 58.4372 25.9979 58.4372 23.0208C58.4278 19.0317 56.839 15.2085 54.0182 12.3877C51.1974 9.56696 47.3743 7.97811 43.3851 7.96876V7.96876Z" fill="white"/>
<path d="M11.5103 71.7186C10.8086 71.7094 10.1383 71.4266 9.64214 70.9304C9.14598 70.4343 8.86318 69.764 8.854 69.0623C8.87271 60.8491 12.1437 52.9777 17.9513 47.1701C23.7589 41.3624 31.6304 38.0915 39.8436 38.0728H46.9269C47.6314 38.0728 48.307 38.3526 48.8052 38.8508C49.3033 39.3489 49.5832 40.0245 49.5832 40.729C49.5832 41.4335 49.3033 42.1091 48.8052 42.6073C48.307 43.1054 47.6314 43.3853 46.9269 43.3853H39.8436C33.0365 43.3946 26.5109 46.1029 21.6975 50.9162C16.8841 55.7296 14.1759 62.2552 14.1665 69.0623C14.1573 69.764 13.8745 70.4343 13.3784 70.9304C12.8822 71.4266 12.2119 71.7094 11.5103 71.7186V71.7186Z" fill="white"/>
<path d="M59.3228 82.3436C58.6211 82.3344 57.9508 82.0516 57.4546 81.5554C56.9585 81.0593 56.6757 80.389 56.6665 79.6873V51.354C56.6665 50.6495 56.9464 49.9739 57.4445 49.4758C57.9426 48.9776 58.6183 48.6978 59.3228 48.6978C60.0272 48.6978 60.7029 48.9776 61.201 49.4758C61.6992 49.9739 61.979 50.6495 61.979 51.354V79.6873C61.9698 80.389 61.687 81.0593 61.1909 81.5554C60.6947 82.0516 60.0244 82.3344 59.3228 82.3436V82.3436Z" fill="white"/>
<path d="M73.4896 68.1772H45.1563C44.4518 68.1772 43.7761 67.8974 43.278 67.3992C42.7799 66.9011 42.5 66.2255 42.5 65.521C42.5 64.8165 42.7799 64.1409 43.278 63.6427C43.7761 63.1446 44.4518 62.8647 45.1563 62.8647H73.4896C74.1941 62.8647 74.8697 63.1446 75.3678 63.6427C75.866 64.1409 76.1458 64.8165 76.1458 65.521C76.1458 66.2255 75.866 66.9011 75.3678 67.3992C74.8697 67.8974 74.1941 68.1772 73.4896 68.1772Z" fill="white"/>
</svg>
