<svg width="104" height="104" viewBox="0 0 104 104" fill="none" xmlns="http://www.w3.org/2000/svg">
<path d="M71.0667 85.0199H27.7334C23.4236 85.0199 19.2904 83.3078 16.2429 80.2603C13.1954 77.2129 11.4834 73.0796 11.4834 68.7699V57.9365C11.4834 57.0746 11.8258 56.2479 12.4353 55.6384C13.0448 55.0289 13.8714 54.6865 14.7334 54.6865C15.5954 54.6865 16.422 55.0289 17.0315 55.6384C17.641 56.2479 17.9834 57.0746 17.9834 57.9365V68.7699C17.9834 71.3557 19.0106 73.8357 20.8391 75.6642C22.6676 77.4926 25.1475 78.5199 27.7334 78.5199H71.0667C73.6526 78.5199 76.1325 77.4926 77.961 75.6642C79.7895 73.8357 80.8167 71.3557 80.8167 68.7699V57.9365C80.8167 57.0746 81.1591 56.2479 81.7686 55.6384C82.3781 55.0289 83.2048 54.6865 84.0667 54.6865C84.9287 54.6865 85.7553 55.0289 86.3648 55.6384C86.9743 56.2479 87.3167 57.0746 87.3167 57.9365V68.7699C87.3167 73.0796 85.6047 77.2129 82.5572 80.2603C79.5097 83.3078 75.3765 85.0199 71.0667 85.0199Z" fill="white"/>
<path d="M49.3999 64.48C48.5379 64.48 47.7113 64.1376 47.1018 63.5281C46.4923 62.9186 46.1499 62.0919 46.1499 61.23V22.23C46.1499 21.368 46.4923 20.5414 47.1018 19.9319C47.7113 19.3224 48.5379 18.98 49.3999 18.98C50.2619 18.98 51.0885 19.3224 51.698 19.9319C52.3075 20.5414 52.6499 21.368 52.6499 22.23V61.23C52.6387 62.0884 52.2927 62.9086 51.6856 63.5157C51.0785 64.1227 50.2584 64.4688 49.3999 64.48V64.48Z" fill="white"/>
<path d="M49.4 69.8533C48.9727 69.8578 48.5488 69.7757 48.1541 69.6118C47.7594 69.448 47.4019 69.2058 47.1034 68.9L28.73 50.5267C28.4234 50.2279 28.1797 49.8708 28.0133 49.4763C27.847 49.0819 27.7612 48.6581 27.7612 48.23C27.7612 47.8019 27.847 47.3781 28.0133 46.9837C28.1797 46.5892 28.4234 46.2321 28.73 45.9333C29.3394 45.3247 30.1654 44.9829 31.0267 44.9829C31.888 44.9829 32.714 45.3247 33.3234 45.9333L49.4 62.01L65.4767 45.9333C65.7742 45.614 66.133 45.3579 66.5317 45.1803C66.9304 45.0026 67.3607 44.9071 67.7971 44.8994C68.2335 44.8917 68.6669 44.972 69.0716 45.1355C69.4763 45.2989 69.8439 45.5422 70.1525 45.8508C70.4611 46.1594 70.7044 46.5271 70.8679 46.9317C71.0314 47.3364 71.1116 47.7699 71.1039 48.2063C71.0962 48.6426 71.0007 49.073 70.8231 49.4717C70.6454 49.8703 70.3893 50.2291 70.07 50.5267L51.6967 68.9C51.3966 69.2038 51.0389 69.4446 50.6445 69.6084C50.2502 69.7721 49.827 69.8554 49.4 69.8533V69.8533Z" fill="white"/>
</svg>
