<svg width="92" height="91" viewBox="0 0 92 91" fill="none" xmlns="http://www.w3.org/2000/svg">
<path d="M27.6765 81.0281C26.0047 81.0776 24.3623 80.5849 22.9999 79.6252C21.6846 78.6847 20.7051 77.3557 20.2022 75.8294C19.6993 74.3031 19.6991 72.6583 20.2015 71.1319L25.0315 56.3823C25.1552 55.9956 25.1554 55.5806 25.0319 55.1938C24.9084 54.807 24.6673 54.4674 24.3415 54.2211L11.6532 45.121C10.2746 44.1907 9.24045 42.8409 8.70791 41.2764C8.17538 39.7119 8.17349 38.0183 8.70255 36.4526C9.23161 34.887 10.2627 33.5349 11.6393 32.6016C13.0159 31.6683 14.6628 31.2048 16.3299 31.2815H32.0082C32.4181 31.2839 32.8179 31.1564 33.1491 30.9175C33.4802 30.6787 33.7253 30.3411 33.8482 29.9544L38.6782 15.1669C39.188 13.6474 40.1709 12.3265 41.4861 11.3934C42.8013 10.4603 44.3814 9.96285 45.9999 9.9723V9.9723C47.6184 9.96285 49.1984 10.4603 50.5136 11.3934C51.8288 12.3265 52.8117 13.6474 53.3215 15.1669L58.1515 29.9544C58.2745 30.3411 58.5195 30.6787 58.8507 30.9175C59.1819 31.1564 59.5817 31.2839 59.9915 31.2815H75.6699C77.3026 31.2643 78.8981 31.7632 80.2242 32.7054C81.5503 33.6477 82.5376 34.9841 83.0424 36.52C83.5472 38.0559 83.543 39.7111 83.0305 41.2446C82.518 42.778 81.524 44.1095 80.1932 45.0452L67.5049 54.1831C67.1778 54.4195 66.9348 54.7523 66.8108 55.1338C66.6868 55.5153 66.6883 55.9258 66.8149 56.3065L71.6449 71.056C72.1813 72.5771 72.2142 74.2276 71.7386 75.7683C71.263 77.3091 70.3038 78.66 68.9999 79.6252C67.6869 80.5743 66.1028 81.0857 64.4765 81.0857C62.8503 81.0857 61.2662 80.5743 59.9532 79.6252L47.3032 70.5252C46.969 70.2848 46.5664 70.1553 46.1532 70.1553C45.74 70.1553 45.3374 70.2848 45.0032 70.5252L32.1999 79.6252C30.8798 80.5538 29.2963 81.0449 27.6765 81.0281V81.0281ZM45.9999 64.4585C47.6282 64.4638 49.2124 64.9818 50.5232 65.9373L63.2115 75.0373C63.5458 75.2699 63.9454 75.3931 64.354 75.3894C64.7627 75.3858 65.16 75.2555 65.4899 75.017C65.8199 74.7785 66.066 74.4437 66.1937 74.0597C66.3213 73.6757 66.3241 73.2617 66.2015 72.876L61.3332 58.0885C60.8218 56.557 60.8174 54.9041 61.3206 53.3699C61.8238 51.8357 62.8085 50.5001 64.1315 49.5573L76.6665 40.4573C77.0117 40.2273 77.2678 39.8884 77.3932 39.4959C77.5185 39.1033 77.5056 38.6804 77.3565 38.296C77.2391 37.9061 76.9954 37.565 76.663 37.3253C76.3306 37.0855 75.9278 36.9603 75.5165 36.969H59.9915C58.3748 36.9678 56.7999 36.4611 55.4918 35.5213C54.1837 34.5816 53.2094 33.2568 52.7082 31.7365L47.8399 16.9869C47.7283 16.5935 47.4861 16.2487 47.1524 16.008C46.8186 15.7672 46.4127 15.6446 45.9999 15.6598V15.6598C45.5871 15.6446 45.1812 15.7672 44.8474 16.008C44.5136 16.2487 44.2715 16.5935 44.1599 16.9869L39.2915 31.6985C38.797 33.226 37.8256 34.559 36.5169 35.506C35.2082 36.453 33.6297 36.9652 32.0082 36.969H16.3299C15.9186 36.9603 15.5158 37.0855 15.1834 37.3253C14.851 37.565 14.6073 37.9061 14.4899 38.296C14.3408 38.6804 14.3279 39.1033 14.4533 39.4959C14.5786 39.8884 14.8347 40.2273 15.1799 40.4573L27.8682 49.5573C29.1913 50.5001 30.1759 51.8357 30.6792 53.3699C31.1824 54.9041 31.178 56.557 30.6665 58.0885L25.7982 72.8002C25.6757 73.1859 25.6785 73.5998 25.8061 73.9838C25.9337 74.3679 26.1798 74.7027 26.5098 74.9412C26.8398 75.1797 27.237 75.3099 27.6457 75.3136C28.0544 75.3172 28.454 75.1941 28.7882 74.9615L41.4765 65.8615C42.7966 64.9329 44.3801 64.4418 45.9999 64.4585V64.4585Z" fill="white"/>
</svg>
