<svg width="87" height="87" viewBox="0 0 87 87" fill="none" xmlns="http://www.w3.org/2000/svg">
<path d="M53.5775 72.5003H35.4525C28.9275 72.5003 16.6025 69.2015 16.6025 56.6953C16.6025 44.189 28.9275 40.8903 35.4525 40.8903H51.5475C52.0913 40.8903 64.96 40.709 64.96 30.5228C64.96 20.3365 52.0913 20.1553 51.5475 20.1553H33.4225C32.7015 20.1553 32.01 19.8688 31.5001 19.359C30.9902 18.8491 30.7038 18.1576 30.7038 17.4365C30.7038 16.7155 30.9902 16.0239 31.5001 15.5141C32.01 15.0042 32.7015 14.7178 33.4225 14.7178H51.5475C58.0725 14.7178 70.3975 18.0165 70.3975 30.5228C70.3975 43.029 58.0725 46.3278 51.5475 46.3278H35.4525C34.9088 46.3278 22.04 46.509 22.04 56.6953C22.04 66.8815 34.9088 67.0628 35.4525 67.0628H53.5775C54.2986 67.0628 54.9901 67.3492 55.5 67.8591C56.0098 68.3689 56.2963 69.0605 56.2963 69.7815C56.2963 70.5026 56.0098 71.1941 55.5 71.704C54.9901 72.2138 54.2986 72.5003 53.5775 72.5003V72.5003Z" fill="white"/>
<path d="M23.3452 30.1238C20.8191 30.1023 18.3559 29.3336 16.2659 27.9146C14.1759 26.4955 12.5527 24.4896 11.6008 22.1496C10.649 19.8095 10.411 17.2401 10.917 14.7651C11.423 12.2901 12.6502 10.0202 14.444 8.24147C16.2379 6.46275 18.5181 5.25478 20.9973 4.76978C23.4765 4.28479 26.0438 4.54447 28.3757 5.5161C30.7075 6.48773 32.6997 8.12784 34.101 10.2297C35.5023 12.3317 36.2501 14.8013 36.2502 17.3275C36.2503 19.0172 35.9157 20.6901 35.2659 22.2497C34.616 23.8093 33.6637 25.2248 32.4639 26.4145C31.2641 27.6042 29.8406 28.5445 28.2755 29.1811C26.7104 29.8178 25.0348 30.1381 23.3452 30.1238ZM23.3452 9.96878C21.9113 9.96878 20.5096 10.394 19.3173 11.1906C18.1251 11.9873 17.1958 13.1196 16.6471 14.4443C16.0984 15.7691 15.9548 17.2268 16.2345 18.6332C16.5143 20.0395 17.2048 21.3314 18.2187 22.3453C19.2326 23.3592 20.5245 24.0497 21.9308 24.3295C23.3372 24.6092 24.7949 24.4656 26.1197 23.9169C27.4444 23.3682 28.5767 22.4389 29.3734 21.2467C30.17 20.0544 30.5952 18.6527 30.5952 17.2188C30.5952 16.2667 30.4077 15.3239 30.0433 14.4443C29.679 13.5647 29.145 12.7655 28.4717 12.0923C27.7985 11.419 26.9993 10.885 26.1197 10.5207C25.2401 10.1563 24.2973 9.96878 23.3452 9.96878V9.96878Z" fill="white"/>
<path d="M63.6553 82.4689C61.1229 82.4761 58.6453 81.7317 56.5362 80.33C54.4271 78.9283 52.7813 76.9323 51.8073 74.5948C50.8332 72.2572 50.5746 69.6832 51.0642 67.1985C51.5539 64.7139 52.7697 62.4305 54.5579 60.6372C56.346 58.844 58.626 57.6217 61.1092 57.125C63.5924 56.6283 66.1672 56.8796 68.5075 57.847C70.8478 58.8145 72.8485 60.4546 74.2562 62.5597C75.6638 64.6648 76.4153 67.1403 76.4153 69.6727C76.4153 73.0602 75.0721 76.3095 72.6802 78.7082C70.2882 81.1069 67.0428 82.4593 63.6553 82.4689V82.4689ZM63.6553 62.3139C62.2213 62.3139 60.8196 62.7391 59.6274 63.5358C58.4351 64.3324 57.5059 65.4647 56.9571 66.7895C56.4084 68.1142 56.2648 69.572 56.5446 70.9783C56.8243 72.3847 57.5148 73.6765 58.5287 74.6904C59.5427 75.7044 60.8345 76.3949 62.2409 76.6746C63.6472 76.9544 65.105 76.8108 66.4297 76.2621C67.7545 75.7133 68.8868 74.7841 69.6834 73.5918C70.4801 72.3995 70.9053 70.9978 70.9053 69.5639C70.9053 67.6411 70.1414 65.797 68.7818 64.4374C67.4221 63.0778 65.5781 62.3139 63.6553 62.3139Z" fill="white"/>
</svg>
