<svg width="90" height="90" viewBox="0 0 90 90" fill="none" xmlns="http://www.w3.org/2000/svg">
<path d="M67.6876 56.2504C66.9417 56.2504 66.2264 55.954 65.6989 55.4266C65.1715 54.8992 64.8752 54.1838 64.8752 53.4379C64.8713 53.068 64.9424 52.7012 65.0842 52.3596C65.226 52.0181 65.4355 51.7087 65.7002 51.4504C66.0991 51.0627 66.6002 50.7969 67.1448 50.684C67.6895 50.571 68.255 50.6158 68.7752 50.8129C69.1169 50.9592 69.4237 51.1765 69.6752 51.4504C69.9398 51.7087 70.1493 52.0181 70.2911 52.3596C70.4329 52.7012 70.504 53.068 70.5001 53.4379C70.5017 53.8 70.4249 54.1582 70.2751 54.4879C70.1568 54.8457 69.9505 55.168 69.6752 55.4254C69.4223 55.6883 69.1152 55.8931 68.7752 56.0254C68.4322 56.1749 68.0618 56.2515 67.6876 56.2504V56.2504Z" fill="white"/>
<path d="M19.7627 56.2503C19.017 56.2496 18.3021 55.9529 17.7752 55.4253C17.4998 55.168 17.2935 54.8456 17.1752 54.4878C17.0297 54.1567 16.9531 53.7994 16.9502 53.4378C16.949 53.0636 17.0257 52.6933 17.1752 52.3503C17.4568 51.6714 17.9963 51.1319 18.6752 50.8503C19.0185 50.7017 19.3886 50.625 19.7627 50.625C20.1368 50.625 20.5069 50.7017 20.8502 50.8503C21.1926 50.978 21.5006 51.1834 21.7502 51.4503C22.2778 51.9772 22.5746 52.6921 22.5752 53.4378C22.606 53.7523 22.5806 54.0697 22.5002 54.3753C22.3675 54.7261 22.1631 55.0453 21.9002 55.3128C21.6318 55.613 21.3021 55.852 20.9333 56.0137C20.5645 56.1755 20.1653 56.2561 19.7627 56.2503V56.2503Z" fill="white"/>
<path d="M45.0003 38.7377C44.3498 38.7318 43.7216 38.5006 43.2224 38.0835C42.7233 37.6664 42.3842 37.0892 42.2628 36.4502C41.8766 34.0024 41.9969 31.5013 42.6161 29.1019C43.2353 26.7024 44.3403 24.4555 45.8628 22.5002C47.8903 20.3506 50.3757 18.685 53.1346 17.6269C55.8936 16.5687 58.8553 16.1452 61.8003 16.3877C62.5462 16.3877 63.2616 16.684 63.789 17.2115C64.3164 17.7389 64.6128 18.4543 64.6128 19.2002C64.6128 19.9461 64.3164 20.6615 63.789 21.1889C63.2616 21.7164 62.5462 22.0127 61.8003 22.0127C59.6757 21.819 57.5346 22.0986 55.5311 22.8313C53.5275 23.564 51.7112 24.7316 50.2128 26.2502C48.2693 28.9202 47.4482 32.2449 47.9253 35.5127C48.0468 36.2422 47.88 36.9903 47.4602 37.5991C47.0403 38.2078 46.4003 38.6296 45.6753 38.7752L45.0003 38.7377Z" fill="white"/>
<path d="M22.5001 73.5378C17.1394 73.5378 11.9983 71.4083 8.2077 67.6177C4.41712 63.8271 2.2876 58.686 2.2876 53.3253C2.2876 47.9646 4.41712 42.8235 8.2077 39.0329C11.9983 35.2423 17.1394 33.1128 22.5001 33.1128C23.246 33.1128 23.9614 33.4091 24.4888 33.9366C25.0163 34.464 25.3126 35.1794 25.3126 35.9253C25.3126 36.6712 25.0163 37.3866 24.4888 37.914C23.9614 38.4415 23.246 38.7378 22.5001 38.7378C20.555 38.7023 18.6226 39.0592 16.8186 39.7873C15.0145 40.5153 13.3757 41.5996 12.0001 42.9753C9.28411 45.7204 7.76071 49.4262 7.76071 53.2878C7.76071 57.1494 9.28411 60.8552 12.0001 63.6003C14.784 66.2268 18.4665 67.6898 22.2938 67.6898C26.1212 67.6898 29.8037 66.2268 32.5876 63.6003C33.1149 63.0736 33.8298 62.7778 34.5751 62.7778C35.3204 62.7778 36.0353 63.0736 36.5626 63.6003C37.0893 64.1276 37.3851 64.8425 37.3851 65.5878C37.3851 66.3331 37.0893 67.048 36.5626 67.5753C32.8423 71.3358 27.7896 73.4782 22.5001 73.5378V73.5378Z" fill="white"/>
<path d="M67.6877 73.5376C65.025 73.5278 62.3908 72.989 59.9381 71.9525C57.4854 70.9161 55.263 69.4026 53.4002 67.5001C52.8735 66.9728 52.5776 66.2579 52.5776 65.5126C52.5776 64.7673 52.8735 64.0524 53.4002 63.5251C53.9275 62.9984 54.6423 62.7026 55.3877 62.7026C56.133 62.7026 56.8478 62.9984 57.3752 63.5251C60.159 66.1516 63.8416 67.6146 67.6689 67.6146C71.4962 67.6146 75.1788 66.1516 77.9627 63.5251C80.6787 60.78 82.2021 57.0742 82.2021 53.2126C82.2021 49.351 80.6787 45.6452 77.9627 42.9001C76.6092 41.5471 75.0009 40.476 73.2308 39.7486C71.4606 39.0213 69.5639 38.6521 67.6502 38.6626C66.9042 38.6626 66.1889 38.3663 65.6614 37.8388C65.134 37.3114 64.8377 36.596 64.8377 35.8501C64.8377 35.1042 65.134 34.3888 65.6614 33.8614C66.1889 33.3339 66.9042 33.0376 67.6502 33.0376C73.0109 33.0376 78.152 35.1671 81.9426 38.9577C85.7331 42.7483 87.8627 47.8894 87.8627 53.2501C87.8627 58.6108 85.7331 63.7519 81.9426 67.5425C78.152 71.3331 73.0109 73.4626 67.6502 73.4626L67.6877 73.5376Z" fill="white"/>
<path d="M55.4252 68.4004H34.5752C33.8293 68.4004 33.1139 68.1041 32.5865 67.5766C32.059 67.0492 31.7627 66.3338 31.7627 65.5879C31.7627 64.842 32.059 64.1266 32.5865 63.5992C33.1139 63.0717 33.8293 62.7754 34.5752 62.7754H55.4252C56.1711 62.7754 56.8865 63.0717 57.4139 63.5992C57.9414 64.1266 58.2377 64.842 58.2377 65.5879C58.2377 66.3338 57.9414 67.0492 57.4139 67.5766C56.8865 68.1041 56.1711 68.4004 55.4252 68.4004V68.4004Z" fill="white"/>
<path d="M67.6875 38.7378H22.5C21.7541 38.7378 21.0387 38.4415 20.5113 37.914C19.9838 37.3866 19.6875 36.6712 19.6875 35.9253C19.6875 35.1794 19.9838 34.464 20.5113 33.9366C21.0387 33.4091 21.7541 33.1128 22.5 33.1128H67.875C68.6209 33.1128 69.3363 33.4091 69.8637 33.9366C70.3912 34.464 70.6875 35.1794 70.6875 35.9253C70.6875 36.6712 70.3912 37.3866 69.8637 37.914C69.3363 38.4415 68.6209 38.7378 67.875 38.7378H67.6875Z" fill="white"/>
</svg>
