<svg width="32" height="32" viewBox="0 0 32 32" fill="none" xmlns="http://www.w3.org/2000/svg">
<path d="M10.1992 27.5724C8.98446 27.5757 7.79622 27.2177 6.78546 26.544C5.77469 25.8703 4.98704 24.9113 4.52259 23.7888C4.05815 22.6664 3.93788 21.4313 4.17707 20.2403C4.41626 19.0494 5.00412 17.9565 5.86592 17.1004L7.68434 15.282C7.8657 15.1009 8.11154 14.9992 8.36786 14.9992C8.62418 14.9992 8.87001 15.1009 9.05137 15.282C9.14263 15.371 9.21515 15.4772 9.26467 15.5946C9.31419 15.712 9.3397 15.8381 9.3397 15.9656C9.3397 16.093 9.31419 16.2191 9.26467 16.3365C9.21515 16.4539 9.14263 16.5602 9.05137 16.6491L7.23296 18.4675C6.44857 19.2554 6.00821 20.3219 6.00821 21.4337C6.00821 22.5455 6.44857 23.612 7.23296 24.3999C8.03194 25.163 9.0943 25.5888 10.1992 25.5888C11.304 25.5888 12.3664 25.163 13.1654 24.3999L16.8022 20.7502C17.1917 20.362 17.5008 19.9007 17.7117 19.3928C17.9226 18.8849 18.0312 18.3404 18.0312 17.7904C18.0312 17.2405 17.9226 16.6959 17.7117 16.188C17.5008 15.6801 17.1917 15.2189 16.8022 14.8307C16.6211 14.6493 16.5193 14.4035 16.5193 14.1471C16.5193 13.8908 16.6211 13.645 16.8022 13.4636C16.8911 13.3724 16.9974 13.2998 17.1148 13.2503C17.2322 13.2008 17.3583 13.1753 17.4857 13.1753C17.6131 13.1753 17.7392 13.2008 17.8566 13.2503C17.974 13.2998 18.0803 13.3724 18.1692 13.4636C18.7397 14.0306 19.1924 14.7047 19.5014 15.4473C19.8103 16.1898 19.9693 16.9861 19.9693 17.7904C19.9693 18.5947 19.8103 19.391 19.5014 20.1336C19.1924 20.8761 18.7397 21.5503 18.1692 22.1172L14.5324 25.7669C13.966 26.3403 13.2912 26.7952 12.5473 27.1052C11.8033 27.4152 11.0051 27.574 10.1992 27.5724V27.5724Z" fill="#A10A0B"/>
<path d="M13.8489 18.7513C13.7215 18.7542 13.5949 18.7304 13.4772 18.6816C13.3595 18.6327 13.2533 18.5598 13.1654 18.4676C12.5934 17.9015 12.1393 17.2277 11.8293 16.485C11.5194 15.7423 11.3599 14.9455 11.3599 14.1408C11.3599 13.336 11.5194 12.5393 11.8293 11.7966C12.1393 11.0539 12.5934 10.38 13.1654 9.814L16.8022 6.16427C17.9515 5.01503 19.5102 4.36938 21.1355 4.36938C22.7607 4.36938 24.3194 5.01503 25.4687 6.16427C26.6179 7.31352 27.2636 8.87223 27.2636 10.4975C27.2636 12.1228 26.6179 13.6815 25.4687 14.8308L23.6503 16.6492C23.4689 16.8303 23.2231 16.932 22.9668 16.932C22.7104 16.932 22.4646 16.8303 22.2832 16.6492C22.192 16.5603 22.1195 16.454 22.07 16.3366C22.0204 16.2192 21.9949 16.0931 21.9949 15.9657C21.9949 15.8382 22.0204 15.7121 22.07 15.5947C22.1195 15.4773 22.192 15.3711 22.2832 15.2821L24.1017 13.4637C24.886 12.6758 25.3264 11.6093 25.3264 10.4975C25.3264 9.38573 24.886 8.31921 24.1017 7.53131C23.3027 6.76819 22.2403 6.34236 21.1355 6.34236C20.0306 6.34236 18.9682 6.76819 18.1692 7.53131L14.5324 11.181C14.1398 11.5675 13.8279 12.0282 13.6151 12.5363C13.4022 13.0445 13.2926 13.5899 13.2926 14.1408C13.2926 14.6917 13.4022 15.2371 13.6151 15.7453C13.8279 16.2534 14.1398 16.7141 14.5324 17.1005C14.7136 17.2819 14.8153 17.5277 14.8153 17.7841C14.8153 18.0404 14.7136 18.2862 14.5324 18.4676C14.4431 18.558 14.3367 18.6297 14.2193 18.6784C14.1019 18.7271 13.976 18.7519 13.8489 18.7513V18.7513Z" fill="#A10A0B"/>
</svg>
