<svg width="32" height="32" viewBox="0 0 32 32" fill="none" xmlns="http://www.w3.org/2000/svg">
<path d="M24.5014 24.1548H7.42637C6.01599 24.1548 4.66318 23.5954 3.66468 22.5993C2.66618 21.6032 2.10351 20.2518 2.1001 18.8414V7.93093C2.10351 6.52055 2.66618 5.1691 3.66468 4.17302C4.66318 3.17694 6.01599 2.61755 7.42637 2.61755H24.5014C25.9118 2.61755 27.2646 3.17694 28.2631 4.17302C29.2616 5.1691 29.8243 6.52055 29.8277 7.93093V18.8414C29.8243 20.2518 29.2616 21.6032 28.2631 22.5993C27.2646 23.5954 25.9118 24.1548 24.5014 24.1548ZM7.42637 4.55204C6.52904 4.55203 5.66828 4.90761 5.03256 5.54091C4.39685 6.1742 4.03799 7.03361 4.03458 7.93093V18.8414C4.03799 19.7387 4.39685 20.5981 5.03256 21.2314C5.66828 21.8647 6.52904 22.2203 7.42637 22.2203H24.5014C25.3987 22.2203 26.2595 21.8647 26.8952 21.2314C27.5309 20.5981 27.8898 19.7387 27.8932 18.8414V7.93093C27.8898 7.03361 27.5309 6.1742 26.8952 5.54091C26.2595 4.90761 25.3987 4.55203 24.5014 4.55204H7.42637Z" fill="#A10A0B"/>
<path d="M15.9633 29.3136C15.7068 29.3136 15.4608 29.2117 15.2794 29.0303C15.098 28.8489 14.9961 28.6028 14.9961 28.3463V23.1877C14.9961 22.9312 15.098 22.6851 15.2794 22.5038C15.4608 22.3224 15.7068 22.2205 15.9633 22.2205C16.2199 22.2205 16.4659 22.3224 16.6473 22.5038C16.8287 22.6851 16.9306 22.9312 16.9306 23.1877V28.3463C16.9306 28.6028 16.8287 28.8489 16.6473 29.0303C16.4659 29.2117 16.2199 29.3136 15.9633 29.3136Z" fill="#A10A0B"/>
<path d="M23.7014 29.3134H8.22554C7.96901 29.3134 7.72299 29.2115 7.5416 29.0301C7.36021 28.8487 7.2583 28.6027 7.2583 28.3461C7.2583 28.0896 7.36021 27.8436 7.5416 27.6622C7.72299 27.4808 7.96901 27.3789 8.22554 27.3789H23.7014C23.9579 27.3789 24.204 27.4808 24.3853 27.6622C24.5667 27.8436 24.6686 28.0896 24.6686 28.3461C24.6686 28.6027 24.5667 28.8487 24.3853 29.0301C24.204 29.2115 23.9579 29.3134 23.7014 29.3134Z" fill="#A10A0B"/>
</svg>
