<svg width="32" height="32" viewBox="0 0 32 32" fill="none" xmlns="http://www.w3.org/2000/svg">
<path d="M16.3705 28.5398C13.8836 28.5398 11.4525 27.8023 9.38471 26.4206C7.31691 25.039 5.70525 23.0752 4.75354 20.7775C3.80183 18.4799 3.55283 15.9517 4.038 13.5125C4.52318 11.0734 5.72075 8.83289 7.47927 7.07437C9.2378 5.31584 11.4783 4.11827 13.9174 3.63309C16.3566 3.14792 18.8848 3.39693 21.1824 4.34863C23.4801 5.30034 25.4439 6.912 26.8255 8.97981C28.2072 11.0476 28.9447 13.4787 28.9447 15.9656C28.9413 19.2994 27.6154 22.4957 25.258 24.8531C22.9006 27.2105 19.7044 28.5363 16.3705 28.5398ZM16.3705 5.32597C14.2662 5.32597 12.2091 5.94997 10.4595 7.11907C8.70977 8.28817 7.34606 9.94986 6.54077 11.894C5.73548 13.8381 5.52478 15.9774 5.93531 18.0413C6.34585 20.1052 7.35918 22.001 8.84716 23.489C10.3351 24.977 12.2309 25.9903 14.2948 26.4008C16.3587 26.8114 18.498 26.6007 20.4422 25.7954C22.3863 24.9901 24.048 23.6264 25.2171 21.8767C26.3862 20.127 27.0102 18.0699 27.0102 15.9656C27.0068 13.1449 25.8847 10.4406 23.8901 8.44602C21.8956 6.45144 19.1913 5.32938 16.3705 5.32597V5.32597Z" fill="#A10A0B"/>
<path d="M11.56 22.0269C11.3152 22.0245 11.0801 21.9305 10.9011 21.7634C10.7221 21.5963 10.6121 21.3683 10.5928 21.1242V16.778C10.5928 16.5215 10.6947 16.2755 10.8761 16.0941C11.0575 15.9127 11.3035 15.8108 11.56 15.8108C11.8165 15.8108 12.0626 15.9127 12.244 16.0941C12.4254 16.2755 12.5273 16.5215 12.5273 16.778V21.1242C12.5109 21.3694 12.4018 21.5991 12.2221 21.7668C12.0425 21.9345 11.8058 22.0275 11.56 22.0269Z" fill="#A10A0B"/>
<path d="M16.3706 22.0271C16.1151 22.0237 15.871 21.9207 15.6903 21.7401C15.5096 21.5594 15.4067 21.3153 15.4033 21.0598V10.8715C15.4033 10.615 15.5052 10.369 15.6866 10.1876C15.868 10.0062 16.114 9.9043 16.3706 9.9043C16.6271 9.9043 16.8731 10.0062 17.0545 10.1876C17.2359 10.369 17.3378 10.615 17.3378 10.8715V21.1243C17.3185 21.3684 17.2085 21.5964 17.0295 21.7635C16.8505 21.9306 16.6154 22.0246 16.3706 22.0271V22.0271Z" fill="#A10A0B"/>
<path d="M21.1807 22.0271C20.9394 22.0212 20.7091 21.9253 20.5349 21.7582C20.3607 21.5912 20.2553 21.3651 20.2393 21.1243V14.431C20.2393 14.1745 20.3412 13.9284 20.5226 13.747C20.7039 13.5656 20.95 13.4637 21.2065 13.4637C21.463 13.4637 21.709 13.5656 21.8904 13.747C22.0718 13.9284 22.1737 14.1745 22.1737 14.431V21.1243C22.1541 21.3729 22.0405 21.6046 21.856 21.7723C21.6715 21.94 21.43 22.0311 21.1807 22.0271V22.0271Z" fill="#A10A0B"/>
</svg>
