<svg width="32" height="31" viewBox="0 0 32 31" fill="none" xmlns="http://www.w3.org/2000/svg">
<path d="M15.7863 23.807C15.5304 23.804 15.2856 23.7024 15.1028 23.5233L7.75178 16.1593C7.59046 15.9833 7.50098 15.7533 7.50098 15.5145C7.50098 15.2758 7.59046 15.0457 7.75178 14.8697L18.572 3.86893C18.7532 3.68748 18.9991 3.58543 19.2555 3.58521V3.58521H26.671C26.9241 3.58521 27.1669 3.68575 27.3458 3.86473C27.5248 4.0437 27.6254 4.28644 27.6254 4.53955L27.7156 11.8648C27.716 12.1251 27.6141 12.3752 27.4319 12.5612L16.457 23.5362C16.2741 23.7054 16.0355 23.8018 15.7863 23.807ZM9.78943 15.4758L15.7863 21.4598L25.7812 11.465L25.7167 5.50679H19.6682L9.78943 15.4758Z" fill="#A10A0B"/>
<path d="M19.3971 27.4051C19.2697 27.408 19.1431 27.3843 19.0254 27.3354C18.9077 27.2865 18.8015 27.2137 18.7136 27.1214L4.14046 12.5612C3.9696 12.3778 3.87659 12.1353 3.88101 11.8847C3.88543 11.6342 3.98694 11.3951 4.16416 11.2179C4.34137 11.0407 4.58046 10.9391 4.83104 10.9347C5.08162 10.9303 5.32413 11.0233 5.50749 11.1942L20.0806 25.7931C20.2617 25.9744 20.3635 26.2203 20.3635 26.4766C20.3635 26.7329 20.2617 26.9787 20.0806 27.1601C19.8939 27.3286 19.6483 27.4167 19.3971 27.4051V27.4051Z" fill="#A10A0B"/>
<path d="M9.27347 27.3278C9.03658 27.3236 8.80856 27.237 8.62864 27.0828L4.17933 22.6335C4.08755 22.5399 4.01523 22.429 3.96653 22.3072C3.91784 22.1855 3.89373 22.0553 3.89561 21.9242C3.89561 21.3954 3.89561 21.3825 9.20899 16.2239C9.39035 16.0428 9.63619 15.941 9.89251 15.941C10.1488 15.941 10.3947 16.0428 10.576 16.2239C10.7572 16.4053 10.8589 16.6511 10.8589 16.9074C10.8589 17.1638 10.7572 17.4096 10.576 17.5909C8.91237 19.2288 7.10685 21.0085 6.20409 21.9242L9.27347 24.9936L13.6067 20.6345C13.6956 20.5433 13.8019 20.4708 13.9193 20.4212C14.0367 20.3717 14.1628 20.3462 14.2902 20.3462C14.4176 20.3462 14.5438 20.3717 14.6612 20.4212C14.7785 20.4708 14.8848 20.5433 14.9737 20.6345C15.1549 20.8159 15.2566 21.0617 15.2566 21.3181C15.2566 21.5744 15.1549 21.8202 14.9737 22.0016L9.9183 27.0828C9.73954 27.2389 9.51079 27.3258 9.27347 27.3278V27.3278Z" fill="#A10A0B"/>
</svg>
